# Blender v2.80 (sub 75) OBJ File: ''
# www.blender.org
mtllib cube.mtl
o Cube.001
v -1.380934 -0.168678 -3.316689
v 0.006147 3.416576 1.123760
v 1.995494 1.992704 -2.232264
v -1.995494 -1.992704 2.232264
v 1.380934 0.168678 3.316689
v -3.370282 1.255195 0.039334
v -0.006147 -3.416576 -1.123760
v 3.370282 -1.255195 -0.039334
vt 0.333333 1.000000
vt 0.000000 0.666667
vt 0.333333 0.666667
vt 0.333333 0.333333
vt 0.666667 0.666667
vt 0.333333 0.666667
vt 0.333333 0.333333
vt 0.666667 0.000000
vt 0.666667 0.333333
vt 0.666667 0.333333
vt 1.000000 0.000000
vt 1.000000 0.333333
vt 0.000000 0.333333
vt 0.333333 0.000000
vt 0.333333 0.333333
vt 0.000000 0.666667
vt 0.333333 0.666667
vt 0.000000 1.000000
vt 0.666667 0.333333
vt 0.333333 0.000000
vt 0.666667 0.000000
vt 0.000000 0.000000
vn -0.3310 0.7821 -0.5280
vn -0.4790 0.3428 0.8081
vn -0.8130 -0.5204 -0.2611
vn 0.3310 -0.7821 0.5280
vn 0.8130 0.5204 0.2611
vn 0.4790 -0.3428 -0.8081
vn 0.4790 -0.3429 -0.8081
usemtl Default_OBJ
s off
f 1/1/1 2/2/1 3/3/1
f 2/4/2 4/5/2 5/6/2
f 6/7/3 7/8/3 4/9/3
f 8/10/4 4/11/4 7/12/4
f 3/13/5 5/14/5 8/15/5
f 1/16/6 8/15/6 7/17/6
f 1/1/1 6/18/1 2/2/1
f 2/4/2 6/19/2 4/5/2
f 6/7/3 1/20/3 7/8/3
f 8/10/4 5/21/4 4/11/4
f 3/13/5 2/22/5 5/14/5
f 1/16/7 3/13/7 8/15/7
